HIERARCHY
ROOT hips
{
	OFFSET 0.000000 104.274902 0.000000
	CHANNELS 6 Xposition Yposition Zposition Xrotation Yrotation Zrotation
	JOINT spine
	{
		OFFSET 0.000000 10.181549 0.131524
		CHANNELS 6 Xposition Yposition Zposition Xrotation Yrotation Zrotation
		JOINT chest
		{
			OFFSET 0.000000 9.893990 -1.470706
			CHANNELS 3 Xrotation Yrotation Zrotation
			JOINT upperChest
			{
				OFFSET 0.000000 9.220787 -1.370637
				CHANNELS 3 Xrotation Yrotation Zrotation
				JOINT neck
				{
					OFFSET 0.000000 16.740372 -2.049022
					CHANNELS 6 Xposition Yposition Zposition Xrotation Yrotation Zrotation
					JOINT head
					{
						OFFSET 0.000000 9.617859 1.684976
						CHANNELS 6 Xposition Yposition Zposition Xrotation Yrotation Zrotation
						JOINT headEnd
						{
							OFFSET 0.000000 22.037384 7.501072
							CHANNELS 6 Xposition Yposition Zposition Xrotation Yrotation Zrotation
							End Site
							{
								OFFSET 0.000000 23.106567 -2.828246
							}
						}
					}
				}
				JOINT rightShoulder
				{
					OFFSET -4.570000 11.014877 -2.160840
					CHANNELS 6 Xposition Yposition Zposition Xrotation Yrotation Zrotation
					JOINT rightUpperArm
					{
						OFFSET -10.592867 -0.524796 -2.232105
						CHANNELS 3 Xrotation Yrotation Zrotation
						JOINT rightLowerArm
						{
							OFFSET -27.841497 0.000000 -0.000002
							CHANNELS 3 Xrotation Yrotation Zrotation
							JOINT rightHand
							{
								OFFSET -28.328812 0.000000 -0.000001
								CHANNELS 3 Xrotation Yrotation Zrotation
								JOINT rightThumbProximal
								{
									OFFSET -2.464798 -1.573990 2.681911
									CHANNELS 6 Xposition Yposition Zposition Xrotation Yrotation Zrotation
									JOINT rightThumbIntermediate
									{
										OFFSET -3.244781 -1.873383 1.873376
										CHANNELS 3 Xrotation Yrotation Zrotation
										JOINT rightThumbDistal
										{
											OFFSET -2.646263 -1.527817 1.527818
											CHANNELS 6 Xposition Yposition Zposition Xrotation Yrotation Zrotation
											JOINT rightHandThumb4
											{
												OFFSET -1.994591 -1.151581 1.151575
												CHANNELS 6 Xposition Yposition Zposition Xrotation Yrotation Zrotation
												End Site
												{
													OFFSET -1.860176 -1.142715 1.365483
												}
											}
										}
									}
								}
								JOINT rightIndexProximal
								{
									OFFSET -9.108299 -0.517883 2.259803
									CHANNELS 6 Xposition Yposition Zposition Xrotation Yrotation Zrotation
									JOINT rightIndexIntermediate
									{
										OFFSET -3.699997 0.000000 0.000000
										CHANNELS 3 Xrotation Yrotation Zrotation
										JOINT rightIndexDistal
										{
											OFFSET -2.850006 0.000000 0.000000
											CHANNELS 3 Xrotation Yrotation Zrotation
											JOINT rightHandIndex4
											{
												OFFSET -2.772194 0.000000 0.000000
												CHANNELS 3 Xrotation Yrotation Zrotation
												End Site
												{
													OFFSET -2.772202 0.000000 -0.000484
												}
											}
										}
									}
								}
								JOINT rightMiddleProximal
								{
									OFFSET -9.532501 0.000000 -0.000000
									CHANNELS 6 Xposition Yposition Zposition Xrotation Yrotation Zrotation
									JOINT rightMiddleIntermediate
									{
										OFFSET -3.699997 0.000000 0.000000
										CHANNELS 3 Xrotation Yrotation Zrotation
										JOINT rightMiddleDistal
										{
											OFFSET -2.949997 0.000000 0.000000
											CHANNELS 3 Xrotation Yrotation Zrotation
											JOINT rightHandMiddle4
											{
												OFFSET -2.946594 0.000000 0.000000
												CHANNELS 3 Xrotation Yrotation Zrotation
												End Site
												{
													OFFSET -2.946602 0.000000 -0.000982
												}
											}
										}
									}
								}
								JOINT rightRingProximal
								{
									OFFSET -9.103600 -0.043106 -1.865100
									CHANNELS 6 Xposition Yposition Zposition Xrotation Yrotation Zrotation
									JOINT rightRingIntermediate
									{
										OFFSET -3.379303 0.000000 0.000000
										CHANNELS 3 Xrotation Yrotation Zrotation
										JOINT rightRingDistal
										{
											OFFSET -2.889694 0.000000 0.000000
											CHANNELS 3 Xrotation Yrotation Zrotation
											JOINT rightHandRing4
											{
												OFFSET -2.638802 0.000000 0.000000
												CHANNELS 3 Xrotation Yrotation Zrotation
												End Site
												{
													OFFSET -2.638802 0.000000 0.004218
												}
											}
										}
									}
								}
								JOINT rightLittleProximal
								{
									OFFSET -8.076698 -0.486725 -3.806299
									CHANNELS 6 Xposition Yposition Zposition Xrotation Yrotation Zrotation
									JOINT rightLittleIntermediate
									{
										OFFSET -3.600006 0.000000 0.000000
										CHANNELS 3 Xrotation Yrotation Zrotation
										JOINT rightLittleDistal
										{
											OFFSET -2.099998 0.000000 0.000000
											CHANNELS 3 Xrotation Yrotation Zrotation
											JOINT rightHandPinky4
											{
												OFFSET -2.115791 0.000000 0.000000
												CHANNELS 3 Xrotation Yrotation Zrotation
												End Site
												{
													OFFSET -2.115799 0.000000 0.000174
												}
											}
										}
									}
								}
							}
						}
					}
				}
				JOINT leftShoulder
				{
					OFFSET 4.570400 11.014679 -2.160816
					CHANNELS 6 Xposition Yposition Zposition Xrotation Yrotation Zrotation
					JOINT leftUpperArm
					{
						OFFSET 10.592373 -0.524597 -2.232116
						CHANNELS 3 Xrotation Yrotation Zrotation
						JOINT leftLowerArm
						{
							OFFSET 27.841488 0.000000 0.000001
							CHANNELS 3 Xrotation Yrotation Zrotation
							JOINT leftHand
							{
								OFFSET 28.328808 0.000000 -0.000000
								CHANNELS 3 Xrotation Yrotation Zrotation
								JOINT leftThumbProximal
								{
									OFFSET 2.466103 -1.576202 2.681698
									CHANNELS 6 Xposition Yposition Zposition Xrotation Yrotation Zrotation
									JOINT leftThumbIntermediate
									{
										OFFSET 3.243317 -1.872528 1.872530
										CHANNELS 3 Xrotation Yrotation Zrotation
										JOINT leftThumbDistal
										{
											OFFSET 2.647881 -1.528763 1.528754
											CHANNELS 6 Xposition Yposition Zposition Xrotation Yrotation Zrotation
											JOINT leftHandThumb4
											{
												OFFSET 1.998924 -1.154083 1.154080
												CHANNELS 6 Xposition Yposition Zposition Xrotation Yrotation Zrotation
												End Site
												{
													OFFSET 1.884041 -1.149155 1.337651
												}
											}
										}
									}
								}
								JOINT leftIndexProximal
								{
									OFFSET 9.109299 -0.518005 2.259900
									CHANNELS 6 Xposition Yposition Zposition Xrotation Yrotation Zrotation
									JOINT leftIndexIntermediate
									{
										OFFSET 3.699997 0.000000 0.000000
										CHANNELS 3 Xrotation Yrotation Zrotation
										JOINT leftIndexDistal
										{
											OFFSET 2.850006 0.000000 0.000000
											CHANNELS 3 Xrotation Yrotation Zrotation
											JOINT leftHandIndex4
											{
												OFFSET 2.774895 0.000000 0.000000
												CHANNELS 3 Xrotation Yrotation Zrotation
												End Site
												{
													OFFSET 2.774902 0.000000 -0.000072
												}
											}
										}
									}
								}
								JOINT leftMiddleProximal
								{
									OFFSET 9.533401 0.000000 0.000000
									CHANNELS 6 Xposition Yposition Zposition Xrotation Yrotation Zrotation
									JOINT leftMiddleIntermediate
									{
										OFFSET 3.699997 0.000000 0.000000
										CHANNELS 3 Xrotation Yrotation Zrotation
										JOINT leftMiddleDistal
										{
											OFFSET 2.949997 0.000000 0.000000
											CHANNELS 3 Xrotation Yrotation Zrotation
											JOINT leftHandMiddle4
											{
												OFFSET 2.952896 0.000000 0.000000
												CHANNELS 3 Xrotation Yrotation Zrotation
												End Site
												{
													OFFSET 2.952904 0.000000 0.000165
												}
											}
										}
									}
								}
								JOINT leftRingProximal
								{
									OFFSET 9.104500 -0.042999 -1.865101
									CHANNELS 6 Xposition Yposition Zposition Xrotation Yrotation Zrotation
									JOINT leftRingIntermediate
									{
										OFFSET 3.149994 0.000000 0.000000
										CHANNELS 3 Xrotation Yrotation Zrotation
										JOINT leftRingDistal
										{
											OFFSET 2.950005 0.000000 0.000000
											CHANNELS 3 Xrotation Yrotation Zrotation
											JOINT leftHandRing4
											{
												OFFSET 2.644302 0.000000 0.000000
												CHANNELS 3 Xrotation Yrotation Zrotation
												End Site
												{
													OFFSET 2.644302 0.000000 0.000083
												}
											}
										}
									}
								}
								JOINT leftLittleProximal
								{
									OFFSET 8.077805 -0.486893 -3.806302
									CHANNELS 6 Xposition Yposition Zposition Xrotation Yrotation Zrotation
									JOINT leftLittleIntermediate
									{
										OFFSET 3.600006 0.000000 0.000000
										CHANNELS 3 Xrotation Yrotation Zrotation
										JOINT leftLittleDistal
										{
											OFFSET 2.099998 0.000000 0.000000
											CHANNELS 3 Xrotation Yrotation Zrotation
											JOINT leftHandPinky4
											{
												OFFSET 2.125496 0.000000 0.000000
												CHANNELS 3 Xrotation Yrotation Zrotation
												End Site
												{
													OFFSET 2.125504 0.000000 -0.001254
												}
											}
										}
									}
								}
							}
						}
					}
				}
			}
		}
	}
	JOINT rightUpperLeg
	{
		OFFSET -8.207800 -6.751701 -1.599544
		CHANNELS 6 Xposition Yposition Zposition Xrotation Yrotation Zrotation
		JOINT rightLowerLeg
		{
			OFFSET 0.000004 -44.370152 0.345934
			CHANNELS 3 Xrotation Yrotation Zrotation
			JOINT rightFoot
			{
				OFFSET 0.000004 -44.423664 -3.043535
				CHANNELS 3 Xrotation Yrotation Zrotation
				JOINT rightToes
				{
					OFFSET 0.000001 -8.728691 10.710592
					CHANNELS 3 Xrotation Yrotation Zrotation
					JOINT rightToesEnd
					{
						OFFSET 0.000000 -0.000665 9.278101
						CHANNELS 3 Xrotation Yrotation Zrotation
						End Site
						{
							OFFSET 0.000000 -0.000665 9.278103
						}
					}
				}
			}
		}
	}
	JOINT leftUpperLeg
	{
		OFFSET 8.207800 -6.751701 -1.599544
		CHANNELS 6 Xposition Yposition Zposition Xrotation Yrotation Zrotation
		JOINT leftLowerLeg
		{
			OFFSET 0.000004 -44.370037 0.346940
			CHANNELS 3 Xrotation Yrotation Zrotation
			JOINT leftFoot
			{
				OFFSET 0.000004 -44.423611 -3.044388
				CHANNELS 3 Xrotation Yrotation Zrotation
				JOINT leftToes
				{
					OFFSET 0.000001 -8.728690 10.710592
					CHANNELS 3 Xrotation Yrotation Zrotation
					JOINT leftToesEnd
					{
						OFFSET 0.000000 -0.000680 9.278101
						CHANNELS 3 Xrotation Yrotation Zrotation
						End Site
						{
							OFFSET 0.000000 -0.000680 9.278101
						}
					}
				}
			}
		}
	}
}
MOTION
Frames: 4
Frame Time: 0.033333
1.709134 100.200081 0.660420 17.741661 64.804978 -18.545579 0.000001 10.181548 0.131524 6.160020 -7.485986 2.442568 4.310882 -5.080037 1.491195 4.286571 -5.107798 1.474289 0.000001 16.740358 -2.049024 4.978469 -6.011175 -0.321190 -0.000001 9.617846 1.684981 -6.170408 -35.350013 5.936107 0.000003 22.037354 7.501077 0.000001 0.000001 -0.000001 -4.569997 11.014865 -2.160840 0.595466 -1.390396 9.840905 0.790487 18.351118 63.628130 -0.000004 10.880730 0.000000 5.429197 7.010657 3.063160 -2.464791 -1.573991 2.681903 34.291402 12.558853 -19.883275 11.489988 -21.119927 4.893344 -2.646266 -1.527814 1.527815 -14.361829 -10.988390 -13.138666 -1.994606 -1.151580 1.151577 -0.000000 -0.000002 0.000003 -9.108310 -0.517881 2.259801 -3.698327 6.025965 22.669693 0.571916 -2.237938 28.667226 0.234951 -1.461981 18.258192 -0.000000 0.000003 0.000001 -9.532497 0.000008 -0.000001 -1.188827 -2.134993 36.442239 0.439888 -1.977584 25.079010 0.306352 -1.662806 20.876579 -0.000002 0.000001 -0.000002 -9.103599 -0.043104 -1.865100 -0.158307 -3.317442 32.527202 0.712803 -2.478098 32.090852 0.791755 -2.599618 33.872681 0.000000 0.000000 0.000000 -8.076690 -0.486726 -3.806300 -0.230240 -3.050614 29.545578 0.380385 -1.845163 23.294720 0.434355 -1.965700 24.917635 -0.000000 0.000001 0.000001 4.570402 11.014685 -2.160816 0.592472 -8.131202 -9.571543 -1.423000 -40.537282 -52.835673 -0.000002 -15.588913 -0.000001 0.037264 -0.758810 4.413576 2.466089 -1.576210 2.681699 0.951929 1.164413 0.226726 14.135478 7.078652 16.889941 2.647875 -1.528751 1.528749 2.111147 -12.683724 22.173046 1.998922 -1.154091 1.154078 -0.000001 0.000005 -0.000002 9.109276 -0.518020 2.259900 -1.796134 -0.207158 -25.766346 0.128733 1.222718 -12.021294 0.133932 1.246926 -12.263044 0.000000 0.000001 -0.000001 9.533385 0.000001 0.000001 0.096572 4.078404 -31.749332 0.303113 1.861869 -18.494303 0.108877 1.125485 -11.052458 0.000000 0.000000 0.000000 9.104495 -0.043003 -1.865101 2.144206 7.265037 -33.266310 0.473927 2.310310 -23.184013 0.341119 1.971748 -19.629950 0.000000 -0.000000 0.000004 8.077785 -0.486891 -3.806300 0.990720 5.549457 -36.791688 0.507573 2.387287 -24.005082 0.223610 1.604774 -15.865684 0.000000 0.000000 -0.000003 -8.207799 -6.751704 -1.599539 -25.808746 -1.643810 1.776431 27.765569 5.979362 0.039800 -9.324233 0.881318 -0.836533 -6.010782 0.000032 -0.000003 -0.000000 0.000000 0.000000 8.207799 -6.751693 -1.599545 -32.525456 12.637492 7.490517 60.814741 -1.808114 -0.259222 -3.512544 -0.183422 2.194611 -8.975720 -0.000018 0.000017 -0.000003 0.000001 -0.000000 
6.682059 100.970673 1.179972 18.158908 64.865787 -17.577507 0.000000 10.181560 0.131523 5.948688 -7.176271 0.691407 4.288298 -4.781415 0.960381 4.258615 -4.814763 0.941161 0.000002 16.740347 -2.049024 4.805807 -6.043845 -0.373585 0.000004 9.617849 1.684989 -5.818164 -35.517431 6.343892 0.000001 22.037384 7.501072 0.000001 -0.000000 -0.000001 -4.570001 11.014887 -2.160845 0.420392 -0.807351 9.634710 -0.199798 19.352112 64.557398 0.000008 13.192636 0.000009 5.502834 7.812522 3.423670 -2.464806 -1.573999 2.681913 34.291402 12.558852 -19.883273 11.521943 -21.820117 4.991865 -2.646277 -1.527804 1.527814 -14.361057 -10.995630 -13.142150 -1.994597 -1.151572 1.151580 0.000003 -0.000001 -0.000000 -9.108315 -0.517880 2.259803 -3.646614 5.953914 22.553498 0.575327 -2.244150 28.754430 0.237194 -1.468796 18.346247 0.000001 0.000000 -0.000001 -9.532507 0.000008 -0.000001 -1.188573 -2.125364 36.348918 0.439060 -1.975820 25.054835 0.305640 -1.660947 20.852151 0.000001 -0.000001 0.000000 -9.103624 -0.043104 -1.865101 -0.167290 -3.309324 32.632038 0.712113 -2.477001 32.074811 0.791004 -2.598499 33.856411 0.000000 -0.000001 -0.000000 -8.076714 -0.486737 -3.806297 -0.203054 -3.088892 29.384505 0.374458 -1.831370 23.110299 0.430053 -1.956423 24.792246 0.000001 0.000001 0.000003 4.570401 11.014685 -2.160819 0.716667 -7.610231 -9.704854 2.325685 -37.083143 -50.528770 0.000006 -16.537546 -0.000001 -1.416386 -2.695617 4.250302 2.466093 -1.576223 2.681700 0.951931 1.164408 0.226728 12.179331 6.422296 17.583110 2.647888 -1.528750 1.528754 2.074581 -11.852508 22.020059 1.998917 -1.154108 1.154082 0.000000 0.000002 -0.000000 9.109293 -0.518020 2.259900 -1.955415 -0.736592 -25.012897 0.128248 1.220459 -11.998750 0.133436 1.244662 -12.240367 0.000000 -0.000000 0.000002 9.533395 0.000005 0.000001 -0.111617 3.710679 -31.289807 0.302100 1.858790 -18.462497 0.108262 1.122275 -11.020546 0.000000 -0.000000 0.000001 9.104487 -0.042999 -1.865102 2.072846 7.192515 -32.695559 0.478196 2.320224 -23.289475 0.344793 1.982032 -19.736680 0.000000 -0.000000 0.000001 8.077787 -0.486892 -3.806300 0.944867 5.482613 -36.358787 0.512124 2.397461 -24.114051 0.226798 1.615965 -15.979320 -0.000000 -0.000000 0.000000 -8.207801 -6.751720 -1.599540 -21.597786 -1.153737 -0.617694 25.287251 6.345400 0.053887 -11.357112 0.896687 0.051454 -6.010780 -0.000007 0.000003 -0.000000 -0.000000 -0.000000 8.207799 -6.751700 -1.599550 -35.930412 11.283220 7.558323 51.501692 -1.309013 -0.239956 -4.419730 0.096726 -1.159679 -7.951180 0.000014 0.000008 -0.000001 0.000000 0.000000 
11.982046 100.602921 1.421237 18.084420 63.995212 -18.048008 -0.000000 10.181551 0.131524 5.834138 -5.994381 1.125077 4.160429 -4.512671 0.942369 4.142532 -4.532835 0.923620 -0.000000 16.740364 -2.049023 4.486400 -6.100123 -0.564131 0.000002 9.617850 1.684974 -6.308582 -35.839905 6.439230 -0.000001 22.037399 7.501078 -0.000001 -0.000001 0.000000 -4.570001 11.014882 -2.160841 0.205264 0.034798 9.495202 -1.061195 19.750375 64.179900 0.000002 15.676164 0.000012 6.096348 8.276047 3.432788 -2.464807 -1.573990 2.681911 34.291402 12.558856 -19.883278 12.679120 -21.333597 5.732671 -2.646265 -1.527809 1.527812 -14.384805 -10.891944 -13.152168 -1.994616 -1.151573 1.151582 0.000001 0.000000 0.000001 -9.108317 -0.517867 2.259802 -3.895202 5.665125 24.391464 0.575030 -2.243615 28.746917 0.236996 -1.468211 18.338674 -0.000000 0.000000 0.000000 -9.532515 0.000004 -0.000001 -1.155468 -2.244236 37.064421 0.441716 -1.981479 25.131684 0.307896 -1.666858 20.929880 -0.000000 0.000001 0.000001 -9.103587 -0.043102 -1.865102 -0.306116 -3.155964 33.498926 0.708384 -2.471044 31.988484 0.787021 -2.592563 33.768469 -0.000000 0.000001 0.000000 -8.076715 -0.486725 -3.806299 -0.557639 -2.501987 29.797848 0.378063 -1.839779 23.222727 0.433671 -1.964241 24.898013 0.000000 -0.000000 0.000001 4.570400 11.014692 -2.160810 0.908494 -7.024699 -9.736348 5.329523 -33.660306 -50.292448 0.000011 -18.857925 0.000001 -2.559254 -3.026840 3.949013 2.466089 -1.576214 2.681698 0.951930 1.164410 0.226729 12.805349 6.024297 17.375398 2.647872 -1.528717 1.528749 2.075709 -12.011757 22.002397 1.998925 -1.154100 1.154076 -0.000006 -0.000003 -0.000000 9.109285 -0.518021 2.259900 -1.931776 -0.657834 -25.118396 0.128512 1.221712 -12.011270 0.133713 1.245919 -12.252969 0.000000 -0.000001 0.000002 9.533399 0.000006 -0.000000 -0.043838 3.823698 -31.310735 0.302215 1.859133 -18.466026 0.108327 1.122636 -11.024132 -0.000000 -0.000000 0.000004 9.104489 -0.043000 -1.865100 2.105773 7.238544 -32.766415 0.477083 2.317649 -23.262072 0.343827 1.979332 -19.708666 -0.000000 -0.000000 -0.000003 8.077792 -0.486897 -3.806304 0.907882 5.432376 -36.348040 0.509523 2.391650 -24.051816 0.224983 1.609611 -15.914804 0.000000 0.000000 -0.000001 -8.207801 -6.751700 -1.599542 -17.951844 -1.314704 -1.406569 23.766132 7.105559 0.046695 -13.892333 1.257341 1.024416 -6.010776 -0.000000 0.000004 -0.000000 0.000000 -0.000000 8.207802 -6.751699 -1.599540 -36.600665 9.093499 9.851509 37.864752 -1.056358 -0.199772 -4.727104 0.309720 -4.013539 -6.567598 0.000013 0.000008 -0.000000 -0.000001 -0.000000 
17.282032 100.235161 1.662501 17.996343 63.124854 -18.506881 -0.000001 10.181561 0.131527 5.710824 -4.813240 1.560324 4.032690 -4.243885 0.924965 4.026578 -4.250874 0.906659 -0.000003 16.740343 -2.049022 4.166763 -6.155339 -0.755013 -0.000001 9.617828 1.684982 -6.800358 -36.163038 6.531539 0.000005 22.037369 7.501076 0.000000 -0.000000 -0.000001 -4.570002 11.014864 -2.160842 -0.007854 0.877507 9.358829 -1.922048 20.153979 63.807818 -0.000001 18.160857 0.000018 6.690528 8.739660 3.437064 -2.464803 -1.573990 2.681919 34.291398 12.558852 -19.883278 13.825767 -20.833274 6.460447 -2.646275 -1.527803 1.527816 -14.408538 -10.788253 -13.162128 -1.994594 -1.151582 1.151576 0.000001 -0.000002 -0.000002 -9.108304 -0.517877 2.259804 -4.134295 5.368477 26.227735 0.574733 -2.243078 28.739428 0.236801 -1.467625 18.331097 0.000000 -0.000001 0.000001 -9.532482 0.000004 0.000001 -1.120876 -2.362692 37.780081 0.444378 -1.987134 25.208543 0.310160 -1.672764 21.007609 0.000000 0.000000 0.000000 -9.103599 -0.043102 -1.865101 -0.447239 -3.004710 34.366107 0.704665 -2.465084 31.902157 0.783047 -2.586621 33.680520 -0.000000 -0.000000 0.000000 -8.076678 -0.486726 -3.806297 -0.916331 -1.917636 30.214677 0.381685 -1.848180 23.335143 0.437303 -1.972049 25.003769 0.000000 -0.000000 -0.000001 4.570398 11.014674 -2.160818 1.100416 -6.439256 -9.769775 8.211339 -30.226879 -50.272689 0.000016 -21.179250 0.000005 -3.704343 -3.352027 3.641040 2.466091 -1.576205 2.681699 0.951928 1.164406 0.226726 13.429493 5.624058 17.172223 2.647890 -1.528746 1.528751 2.076778 -12.171015 21.984735 1.998928 -1.154081 1.154072 0.000001 0.000001 0.000001 9.109293 -0.518021 2.259900 -1.907993 -0.579118 -25.223935 0.128776 1.222964 -12.023779 0.133989 1.247181 -12.265568 0.000001 0.000001 0.000000 9.533393 -0.000001 -0.000000 0.023993 3.936696 -31.331813 0.302329 1.859475 -18.469556 0.108393 1.122995 -11.027709 0.000000 0.000000 -0.000000 9.104506 -0.042993 -1.865101 2.138760 7.284531 -32.837302 0.475973 2.315073 -23.234664 0.342863 1.976631 -19.680657 0.000001 0.000001 0.000003 8.077806 -0.486883 -3.806301 0.870909 5.382130 -36.337327 0.506930 2.385835 -23.989576 0.223175 1.603256 -15.850284 -0.000000 -0.000001 0.000001 -8.207801 -6.751713 -1.599539 -14.304253 -1.525735 -2.184499 22.242127 7.865806 0.059865 -16.435120 1.574723 2.013087 -6.010778 0.000001 0.000003 -0.000000 0.000001 0.000000 8.207799 -6.751698 -1.599542 -37.178953 6.877638 12.108119 24.030448 -0.817054 -0.099308 -5.023682 0.537899 -6.868105 -5.183820 0.000014 0.000009 -0.000001 -0.000001 -0.000000 
